PathFileType	4	(X/Y/Z)	/Users/niels/Desktop/University/Third Semester/Perception and Action/Exam/Gymnastics Motion Tracking/Code for Gym Tracking/Analyzed Data/Webcam_Backflip/id4_4_trajectory_Sports2D/id4_4_trajectory_Sports2D_px_person00.trc
DataRate	CameraRate	NumFrames	NumMarkers	Units	OrigDataRate	OrigDataStartFrame	OrigNumFrames
29.714285714285715	29.714285714285715	8	22	m	29.714285714285715	65	105
Frame#	Time	Hip			RHip			RKnee			RAnkle			RBigToe			RSmallToe			RHeel			LHip			LKnee			LAnkle			LBigToe			LSmallToe			LHeel			Neck			Head			Nose			RShoulder			RElbow			RWrist			LShoulder			LElbow			LWrist		
		X1	Y1	Z1	X2	Y2	Z2	X3	Y3	Z3	X4	Y4	Z4	X5	Y5	Z5	X6	Y6	Z6	X7	Y7	Z7	X8	Y8	Z8	X9	Y9	Z9	X10	Y10	Z10	X11	Y11	Z11	X12	Y12	Z12	X13	Y13	Z13	X14	Y14	Z14	X15	Y15	Z15	X16	Y16	Z16	X17	Y17	Z17	X18	Y18	Z18	X19	Y19	Z19	X20	Y20	Z20	X21	Y21	Z21	X22	Y22	Z22
65	2.1875	1.0105789212773635	-0.611131574104329	0.0	1.001625112052969	-0.6093581146206204	0.0	1.051082680133981	-0.7274604276865552	0.0	0.9805921053485435	-0.8433807498842169	0.0	1.0141171500906514	-0.8847829032272445	0.0	1.0019630283800331	-0.8848240478224758	0.0	0.9595798738431074	-0.8576503996341652	0.0	1.0251439478599067	-0.6100866633866762	0.0	1.0398237027830535	-0.7299248382606118	0.0	0.9844919263941687	-0.8442828383606555	0.0	1.0238031040798328	-0.8845412506141153	0.0	1.0167173646684062	-0.8751650494345372	0.0	0.9642999218413544	-0.8601503401566514	0.0	1.0741244714706557	-0.43715288092334414	0.0	1.1137722157868142	-0.3561036467549372	0.0	1.1203627771511933	-0.4075969670417582	0.0	1.0473299103455493	-0.45001227014997364	0.0	1.0569423632334376	-0.5254675482478454	0.0	1.1322799466337221	-0.5629282247268595	0.0	1.081734683695959	-0.4628537869411924	0.0	1.113160231136477	-0.5299208538912501	0.0	1.1866965527477231	-0.5464522837963945	0.0
66	2.2211538461538463	1.0142309702380428	-0.6093078700801281	0.0	1.0061502583244204	-0.6078372556463643	0.0	1.0590659092428252	-0.7240452925737162	0.0	0.9953215329856401	-0.840595194039171	0.0	1.0295754640270625	-0.8815470537167557	0.0	1.0175736013113708	-0.8817283106934378	0.0	0.9751450378856138	-0.8556740662125562	0.0	1.0277523042953838	-0.6086216984224517	0.0	1.038336629150476	-0.729031653807379	0.0	0.984218412500159	-0.8444780613514655	0.0	1.0239644710229014	-0.8852660731781842	0.0	1.0161714537652187	-0.8754954437929748	0.0	0.9643322518434952	-0.8604348155708351	0.0	1.0771098248324003	-0.4353090134453518	0.0	1.1152343615616007	-0.3549680133564913	0.0	1.122867446980978	-0.40604591239989657	0.0	1.048779281534334	-0.4490673069097595	0.0	1.052633025031959	-0.5267923990946728	0.0	1.125942484334996	-0.5702230072531013	0.0	1.0855657589234633	-0.46280491509970384	0.0	1.1120283125007593	-0.5325653643211226	0.0	1.1823857636611448	-0.559157921934785	0.0
67	2.254807692307692	1.0187005970290268	-0.6082698507502655	0.0	1.0112326181189817	-0.6071923790446813	0.0	1.0682623678410315	-0.7212153911827853	0.0	1.016239764772637	-0.8398471573062439	0.0	1.052879411361729	-0.8782095080246292	0.0	1.0409828650695656	-0.8789413603662725	0.0	0.9978611727097181	-0.8561170298894815	0.0	1.0311756628258841	-0.6080569589668317	0.0	1.0381432589546904	-0.7285768318741563	0.0	0.9839998201249046	-0.8451558866245971	0.0	1.024069620397865	-0.8856864737341693	0.0	1.0154442886313746	-0.8762386204029436	0.0	0.9648624783636476	-0.8611458725703122	0.0	1.0806207194800936	-0.4339643255068001	0.0	1.1168855485877043	-0.3547178399547814	0.0	1.125712870538331	-0.40517300302021403	0.0	1.0503634573832539	-0.44892066896497673	0.0	1.0468976378399928	-0.528513573638445	0.0	1.1162765696142316	-0.5786806068542046	0.0	1.0903573257042525	-0.46356684190539094	0.0	1.1108325042642007	-0.5358560439081219	0.0	1.1753596801088828	-0.5738886056339682	0.0
68	2.2884615384615383	1.024380577572651	-0.608394684293174	0.0	1.0171070736209153	-0.6077222744333314	0.0	1.0777579419483438	-0.7197934103880979	0.0	1.0423131457023518	-0.8417683171710765	0.0	1.0824547466526204	-0.8755396469894942	0.0	1.0706310891569526	-0.877166421133792	0.0	1.0265513319895838	-0.859263982924692	0.0	1.035872407645973	-0.6086165136773618	0.0	1.0390542800283642	-0.7288562794691811	0.0	0.9838118174759861	-0.8461562331639678	0.0	1.023814143078318	-0.8859932886098588	0.0	1.0145252076052633	-0.8774287902364801	0.0	0.9655869630347141	-0.8621366734176292	0.0	1.0846203425018206	-0.4330361586156128	0.0	1.1189683862528457	-0.35497281475042586	0.0	1.1289297518020522	-0.4047400102537647	0.0	1.0523096011123851	-0.44951716677334547	0.0	1.0406131283800506	-0.5305557187162118	0.0	1.1038562783607369	-0.5879380913270842	0.0	1.0959529384930125	-0.4646242178815732	0.0	1.1100108132586024	-0.5394339427039848	0.0	1.1662223703022556	-0.589171855528148	0.0
69	2.3221153846153846	1.0316358679677315	-0.6099029945300317	0.0	1.024101374990973	-0.6096114209112721	0.0	1.0868720994865173	-0.720335283739298	0.0	1.0709277232846746	-0.8461637279337142	0.0	1.1146172462546824	-0.8741758632786732	0.0	1.1028204048801629	-0.8768957446218273	0.0	1.058054361415626	-0.8646042819525829	0.0	1.042262139939231	-0.6104126683545082	0.0	1.0409623046475232	-0.7298950727716657	0.0	0.9837866066833136	-0.8471382596662222	0.0	1.022982630464869	-0.8864351643859364	0.0	1.013376802276492	-0.8789527891756638	0.0	0.966289596100362	-0.8630748622469331	0.0	1.0889483731030147	-0.4325269581653896	0.0	1.121575424237014	-0.35531799532149055	0.0	1.1324559883660024	-0.40448596397070496	0.0	1.0546932187511098	-0.45077461623654774	0.0	1.034669782809389	-0.5328466011654108	0.0	1.0893361966134396	-0.5974604851639012	0.0	1.1021532678512327	-0.4655864219771285	0.0	1.109870202804216	-0.5429128645620871	0.0	1.1557879677970486	-0.6033413247122635	0.0
70	2.355769230769231	1.0406087319885529	-0.6126658314100292	0.0	1.0324898128361772	-0.6127963959799574	0.0	1.0953256132913407	-0.722909869697654	0.0	1.0984521926287727	-0.8522189471830469	0.0	1.1448623129114204	-0.8745781472602108	0.0	1.1329639869494526	-0.8784183374730505	0.0	1.0880787252843005	-0.8712123208776643	0.0	1.0505780725389455	-0.6133461952368954	0.0	1.0438878543218981	-0.7315466577589637	0.0	0.9841397895250951	-0.8477571175434478	0.0	1.021714807784677	-0.8870747954752596	0.0	1.0121399956132988	-0.8805131014120038	0.0	0.967017014627418	-0.8635454944487116	0.0	1.093424856124075	-0.4324571572035709	0.0	1.1246310446994612	-0.3554820937472708	0.0	1.1361441007464348	-0.40423580207650717	0.0	1.0573979388188885	-0.45258091596782984	0.0	1.02978540839419	-0.5352351325307038	0.0	1.073408168414872	-0.6066223828687958	0.0	1.1087489380998634	-0.4662827874394738	0.0	1.1104416505618313	-0.5459296247175808	0.0	1.1449684086056535	-0.6148676169534778	0.0
71	2.3894230769230766	1.0510987624844164	-0.6162197999014781	0.0	1.0422586434383134	-0.6169065969104222	0.0	1.103027628271809	-0.7272107002300441	0.0	1.121468152569211	-0.8591393244260607	0.0	1.169490637631462	-0.8769534027139139	0.0	1.1572701043138185	-0.8818074278960936	0.0	1.112747186152841	-0.8782987118512119	0.0	1.060787347239982	-0.6170937183225202	0.0	1.0480715987336628	-0.7336853621732752	0.0	0.9851006264564319	-0.8476556674616064	0.0	1.0202390077964967	-0.8876876628763343	0.0	1.0110721805503893	-0.8816495052174328	0.0	0.9680244979543057	-0.8629763767271328	0.0	1.097914074608813	-0.4327911176781016	0.0	1.127888496020147	-0.35543346912315626	0.0	1.139784613147469	-0.4039399145699519	0.0	1.0602027619445031	-0.4548020906798962	0.0	1.026403526986681	-0.5375434637114556	0.0	1.0569556776781537	-0.614826858582111	0.0	1.1155209061929505	-0.46673706565986306	0.0	1.1115313662205637	-0.5482681163224711	0.0	1.1348154364619474	-0.6227996006504107	0.0
72	2.423076923076923	1.0625939557609383	-0.6199879512023784	0.0	1.0529754496195758	-0.6213612446435415	0.0	1.109834604840127	-0.7327818741860456	0.0	1.1380250382863948	-0.8665188660441807	0.0	1.1866541821269925	-0.8811334391508141	0.0	1.1739461999343968	-0.8868058981318054	0.0	1.130008264345954	-0.885437067904581	0.0	1.0725699418945318	-0.6211855502376523	0.0	1.0539636637449872	-0.7363409574686677	0.0	0.98690397918169	-0.8465030072643465	0.0	1.0186199686373238	-0.8879717577725413	0.0	1.010358837613377	-0.8820032362271659	0.0	0.969655321876367	-0.8607068558333553	0.0	1.1023110865656085	-0.43347511204468236	0.0	1.130997935791811	-0.35531610674442426	0.0	1.1431870509048903	-0.4036645140470917	0.0	1.0629333639517609	-0.4573065183692536	0.0	1.0247082932620963	-0.5397333139477251	0.0	1.0411108323307365	-0.6216325465796969	0.0	1.1222802786406576	-0.46705998036282714	0.0	1.1129792665880005	-0.5499443634525735	0.0	1.126527640980274	-0.627107675558598	0.0
